<svg width="338" height="331" viewBox="0 0 338 331" fill="none" xmlns="http://www.w3.org/2000/svg">
<path fill-rule="evenodd" clip-rule="evenodd" d="M278.501 59.3895C243.714 63.6184 229.798 65.4905 213.607 68.1199C182.155 73.2283 174.364 76.3932 182.02 80.9512C186.553 83.6513 196.145 86.2741 242.831 97.5808C282.852 107.274 317.136 116.148 328.195 119.678C330.471 120.404 332.508 120.829 332.723 120.622C333.604 119.769 326.606 102.174 321.067 91.3177C315.082 79.5871 308.187 68.8773 301.933 61.5983C297.926 56.9338 298.363 56.9754 278.501 59.3895Z" fill="white"/>
<path fill-rule="evenodd" clip-rule="evenodd" d="M281.523 59.1195C252.306 62.6407 240.619 64.1995 227.021 66.3889C200.605 70.6425 194.062 73.2776 200.492 77.0729C204.299 79.3212 212.355 81.5051 251.565 90.9196C285.178 98.9906 313.972 106.38 323.259 109.319C325.171 109.924 329.704 111.225 329.704 110.98C329.704 110.149 324.977 98.9261 319.39 88.119C314.363 78.3515 306.455 67.0195 301.203 60.9587C297.837 57.0748 298.205 57.1094 281.523 59.1195Z" fill="white"/>
<path d="M15.8267 94.7162C41.0726 42.829 92.8031 6.78499 151.938 0.83779C190.447 -3.03529 231.106 6.64533 263.033 27.2885C273.71 34.1917 286.877 44.6654 286.634 46.0628C286.553 46.5367 276.79 47.6805 263.909 48.7255C212.03 52.9328 179.629 56.5091 151.509 61.1328C100.178 69.574 82.1982 74.5452 86.8233 79.0185C87.2995 79.479 102.92 84.8443 121.534 90.9403C169.143 106.532 174.756 108.516 193.281 116.3C219.267 127.22 227.714 134.46 220.369 139.517C213.356 144.348 215.574 143.798 90.4823 171.652C62.8271 177.809 32.0029 184.71 21.9843 186.987L1.79614 190.786C1.36638 189.123 0.953812 186.199 0.118868 175.693C-0.782507 145.895 3.34552 120.369 15.8267 94.7162Z" fill="white"/>
<path d="M337.87 189.123C230.037 229.571 169.693 250.983 58.0948 288.465C94.1882 317.617 117.848 328.487 171.122 330.031C255.785 330.031 326.696 270.592 337.87 189.123Z" fill="white"/>
<path d="M188.743 318.392C275.554 307.585 323.258 252.719 337.87 189.123C221.209 232.205 167.661 250.456 71.8473 283.893C116.606 310.982 142.207 320.963 188.743 318.392Z" fill="white"/>
<path d="M168.544 0.415771C199.916 0.415771 238.595 11.2228 257.075 24.9395L115.683 42.8127C74.8557 50.2945 72.2771 61.9328 71.8474 65.2581C71.4176 68.5833 71.8474 76.0651 85.5998 79.806L184.015 112.643C184.015 112.643 195.189 116.384 193.9 122.203C192.611 128.022 177.139 131.763 162.097 135.504L0.0771484 171.25C0.606341 112.223 19.4164 79.806 49.4998 48.6319C89.4676 11.2228 137.171 0.415771 168.544 0.415771Z" fill="white"/>
</svg>
